# xmcd
#
# Track frame offsets:
#	150
#	15718
#	29744
#	46381
#	57745
#	72727
#	88264
#	101208
#	116357
#	134026
#	144892
#	160179
#	170391
#	181865
#	197836
#	210310
#	227983
#	240114
#	257870
#	267950
#	286738
#	304416
#	316659
#	330519
#	342009
#
# Disc length: 4701 seconds
#
# Revision: 1
# Processed by: cddbd v1.5.2PL0 Copyright (c) Steve Scherf et al.
# Submitted via: audiograbber 1.83.01
#
DISCID=71125b19
DTITLE=Terry Gordon - 25 Australian Bush Ballads
DYEAR=1900
DGENRE=Country
TTITLE0=Dance with me
TTITLE1=I knew the day would come
TTITLE2=Double old suntan
TTITLE3=Goin out the sameway
TTITLE4=One last look
TTITLE5=Wethers
TTITLE6=West of the darling
TTITLE7=Never been west of strathfield
TTITLE8=The changing way
TTITLE9=The progressive shearers
TTITLE10=The betrayal of tilly
TTITLE11=The sick slushy
TTITLE12=Burrawong
TTITLE13=Givin the lizard a run
TTITLE14=Greyhound blues
TTITLE15=Just thank me
TTITLE16=The shearers dream
TTITLE17=The salesman
TTITLE18=Givin her one for christmas
TTITLE19=Livin on the road
TTITLE20=Back in my childhood days
TTITLE21=Old frank
TTITLE22=The champ
TTITLE23=Big burrawong
TTITLE24=Bullocky Bill
EXTD=
EXTT0=
EXTT1=
EXTT2=
EXTT3=
EXTT4=
EXTT5=
EXTT6=
EXTT7=
EXTT8=
EXTT9=
EXTT10=
EXTT11=
EXTT12=
EXTT13=
EXTT14=
EXTT15=
EXTT16=
EXTT17=
EXTT18=
EXTT19=
EXTT20=
EXTT21=
EXTT22=
EXTT23=
EXTT24=
PLAYORDER=
